<svg id="visual" viewBox="0 0 900 600" width="900" height="600" xmlns="http://www.w3.org/2000/svg" xmlns:xlink="http://www.w3.org/1999/xlink" version="1.1"><g><g transform="translate(52 354)"><path d="M0 -147L127.3 -73.5L127.3 73.5L0 147L-127.3 73.5L-127.3 -73.5Z" fill="#297EA6"></path></g><g transform="translate(751 181)"><path d="M0 -98L84.9 -49L84.9 49L0 98L-84.9 49L-84.9 -49Z" fill="#297EA6"></path></g><g transform="translate(882 566)"><path d="M0 -68L58.9 -34L58.9 34L0 68L-58.9 34L-58.9 -34Z" fill="#297EA6"></path></g><g transform="translate(76 44)"><path d="M0 -137L118.6 -68.5L118.6 68.5L0 137L-118.6 68.5L-118.6 -68.5Z" fill="#297EA6"></path></g><g transform="translate(489 591)"><path d="M0 -55L47.6 -27.5L47.6 27.5L0 55L-47.6 27.5L-47.6 -27.5Z" fill="#297EA6"></path></g></g></svg>