<svg width="97" height="164" viewBox="0 0 97 164" fill="none" xmlns="http://www.w3.org/2000/svg">
<path d="M91.8465 10.7947C91.4837 9.88084 90.4214 9.36919 89.4765 9.66346C58.0759 19.4428 32.2332 40.0666 16.4866 67.9615C0.710865 95.908 -3.90707 129.338 3.40927 162.385C3.60742 163.28 4.5283 163.897 5.4682 163.772C6.43335 163.644 7.04863 162.785 6.84584 161.866C-0.260355 129.658 4.25159 97.0829 19.6265 69.8464C34.9796 42.6486 60.1704 22.5359 90.7796 12.9879C91.7301 12.6915 92.2115 11.7142 91.8465 10.7947Z" fill="#29C8BE"/>
<path d="M91.8465 10.7947C91.4837 9.88084 90.4214 9.36919 89.4765 9.66346C58.0759 19.4428 32.2332 40.0666 16.4866 67.9615C0.710865 95.908 -3.90707 129.338 3.40927 162.385C3.60742 163.28 4.5283 163.897 5.4682 163.772C6.43335 163.644 7.04863 162.785 6.84584 161.866C-0.260355 129.658 4.25159 97.0829 19.6265 69.8464C34.9796 42.6486 60.1704 22.5359 90.7796 12.9879C91.7301 12.6915 92.2115 11.7142 91.8465 10.7947Z" fill="black" fill-opacity="0.2"/>
<path fill-rule="evenodd" clip-rule="evenodd" d="M76.2524 0.781715C74.9453 0.340784 73.4429 1.01241 72.8967 2.28184C72.3506 3.55127 72.9674 4.9378 74.2746 5.37873L90.8577 10.9727L83.9714 27.473C83.4396 28.7472 84.0729 30.1263 85.386 30.5532C86.699 30.9802 88.1945 30.2934 88.7263 29.0192L96.2935 10.8873C96.366 10.7136 96.4169 10.538 96.4473 10.3631C96.4664 10.3242 96.4846 10.2847 96.5019 10.2446C97.048 8.97516 96.4312 7.58864 95.1241 7.14771L76.2524 0.781715Z" fill="#29C8BE"/>
<path fill-rule="evenodd" clip-rule="evenodd" d="M76.2524 0.781715C74.9453 0.340784 73.4429 1.01241 72.8967 2.28184C72.3506 3.55127 72.9674 4.9378 74.2746 5.37873L90.8577 10.9727L83.9714 27.473C83.4396 28.7472 84.0729 30.1263 85.386 30.5532C86.699 30.9802 88.1945 30.2934 88.7263 29.0192L96.2935 10.8873C96.366 10.7136 96.4169 10.538 96.4473 10.3631C96.4664 10.3242 96.4846 10.2847 96.5019 10.2446C97.048 8.97516 96.4312 7.58864 95.1241 7.14771L76.2524 0.781715Z" fill="black" fill-opacity="0.2"/>
</svg>
