<svg width="23" height="22" viewBox="0 0 23 22" fill="none" xmlns="http://www.w3.org/2000/svg">
<path d="M12.5921 1.73535C13.453 1.73535 13.834 1.73611 14.1482 1.76424C17.6415 2.077 20.41 4.84552 20.7228 8.33883C20.7509 8.65303 20.7517 9.03403 20.7517 9.8949V10.8848C20.7517 11.2991 21.0874 11.6348 21.5017 11.6348C21.9159 11.6348 22.2517 11.2991 22.2517 10.8848V9.84446C22.2517 9.04756 22.2517 8.59469 22.2168 8.20507C21.8393 3.989 18.498 0.647688 14.2819 0.270215C13.8923 0.235328 13.4394 0.235337 12.6425 0.235352H11.6022C11.1879 0.235352 10.8522 0.57114 10.8522 0.985354C10.8522 1.39957 11.1879 1.73535 11.6022 1.73535L12.5921 1.73535Z" fill="white"/>
<path d="M6.71388 3.01065C5.66179 2.04392 4.04464 2.04392 2.99255 3.01065C2.94947 3.05024 2.90347 3.09624 2.84375 3.15598L1.94625 4.05349C1.04313 4.9566 0.664013 6.25852 0.941075 7.5053C2.51304 14.5792 8.03758 20.1037 15.1114 21.6757C16.3582 21.9527 17.6601 21.5736 18.5633 20.6705L19.4607 19.7731C19.5204 19.7133 19.5665 19.6673 19.6061 19.6242C20.5728 18.5721 20.5728 16.9549 19.6061 15.9029C19.5665 15.8598 19.5205 15.8137 19.4607 15.754L17.9914 14.2847C16.9713 13.2646 15.4308 12.9728 14.1083 13.5493C13.3512 13.8793 12.4693 13.7123 11.8853 13.1283L9.48844 10.7315C8.90444 10.1475 8.73741 9.26554 9.06743 8.50843C9.64389 7.18597 9.35214 5.64544 8.33204 4.62534L6.86271 3.156C6.80297 3.09626 6.75697 3.05025 6.71388 3.01065Z" fill="white"/>
<path d="M12.3092 3.77089C11.8949 3.77089 11.5592 4.10667 11.5592 4.52089C11.5592 4.9351 11.8949 5.27089 12.3092 5.27089H12.8748C12.9621 5.27089 12.9978 5.27091 13.0269 5.27132C15.3264 5.30426 17.1826 7.16045 17.2156 9.46002C17.216 9.4891 17.216 9.52482 17.216 9.61205V10.1777C17.216 10.592 17.5518 10.9277 17.966 10.9277C18.3802 10.9277 18.716 10.592 18.716 10.1777V9.6048C18.716 9.52708 18.716 9.4798 18.7154 9.43854C18.6709 6.32735 16.1595 3.81603 13.0484 3.77148C13.0071 3.77089 12.9598 3.77089 12.8821 3.77089H12.3092Z" fill="white"/>
</svg>
