<svg width="26" height="26" viewBox="0 0 26 26" fill="none" xmlns="http://www.w3.org/2000/svg">
<path fill-rule="evenodd" clip-rule="evenodd" d="M3.34092 0.836351C3.34316 0.376504 2.93891 0.00206013 2.438 8.46533e-06C1.9371 -0.00204313 1.52922 0.369074 1.52699 0.828922L1.51604 3.08151C1.51194 3.91957 1.50853 4.61853 1.57537 5.18049C1.64549 5.76992 1.80221 6.31317 2.20003 6.78509C2.28616 6.88726 2.37922 6.98416 2.47861 7.07526C2.57673 7.1652 2.68102 7.24946 2.7909 7.32753C3.30495 7.69274 3.8967 7.83661 4.53876 7.90098C5.15089 7.96235 5.91224 7.95921 6.8251 7.95545L9.27885 7.9454C9.77975 7.94335 10.184 7.56891 10.1818 7.10906C10.1795 6.64921 9.77166 6.27809 9.27076 6.28014L6.86943 6.28998C5.8906 6.29399 5.23312 6.29542 4.73568 6.24555C4.69827 6.2418 4.66247 6.23781 4.6282 6.2336C6.67869 4.11111 9.66898 2.77545 13 2.77545C19.1779 2.77545 24.186 7.37312 24.186 13.0446C24.186 13.5045 24.5921 13.8773 25.093 13.8773C25.5939 13.8773 26 13.5045 26 13.0446C26 6.45342 20.1797 1.11018 13 1.11018C9.18736 1.11018 5.75741 2.61789 3.38066 5.01666L3.37861 4.99971C3.32428 4.54305 3.32584 3.93946 3.33021 3.04085L3.34092 0.836351Z" fill="black"/>
<path d="M1.81395 13.0446C1.81395 12.5848 1.40789 12.212 0.906977 12.212C0.406067 12.212 0 12.5848 0 13.0446C0 19.6359 5.8203 24.9791 13 24.9791C16.7703 24.9791 20.1663 23.5047 22.5397 21.1523C22.5781 21.5896 22.5764 22.1568 22.5725 22.9591L22.5618 25.1636C22.5596 25.6235 22.9638 25.9979 23.4647 26C23.9656 26.002 24.3735 25.6309 24.3757 25.1711L24.3867 22.9185C24.3908 22.0805 24.3942 21.3815 24.3273 20.8195C24.2572 20.2301 24.1005 19.6868 23.7027 19.2149C23.628 19.1263 23.5481 19.0417 23.4634 18.9614C23.354 18.8576 23.2365 18.7611 23.1118 18.6725C22.5978 18.3073 22.006 18.1634 21.364 18.099C20.7518 18.0377 19.9905 18.0408 19.0776 18.0445L16.6239 18.0546C16.123 18.0567 15.7187 18.4311 15.7209 18.8909C15.7232 19.3508 16.1311 19.7219 16.632 19.7199L19.0333 19.71C20.0121 19.706 20.6696 19.7046 21.167 19.7544C21.2674 19.7645 21.3562 19.7763 21.4352 19.7895C19.3832 21.9504 16.3655 23.3138 13 23.3138C6.82212 23.3138 1.81395 18.7162 1.81395 13.0446Z" fill="black"/>
</svg>
