<svg width="31" height="31" viewBox="0 0 31 31" fill="none" xmlns="http://www.w3.org/2000/svg">
<path fill-rule="evenodd" clip-rule="evenodd" d="M5.10843 7.82872C3.875 9.5264 3.875 11.9481 3.875 16.7915C3.875 21.6349 3.875 24.0566 5.10843 25.7543C5.50678 26.3026 5.98894 26.7847 6.53722 27.1831C8.23489 28.4165 10.6566 28.4165 15.5 28.4165C20.3434 28.4165 22.7651 28.4165 24.4628 27.1831C25.0111 26.7847 25.4932 26.3026 25.8916 25.7543C27.125 24.0566 27.125 21.6349 27.125 16.7915C27.125 11.9481 27.125 9.5264 25.8916 7.82872C25.4932 7.28045 25.0111 6.79828 24.4628 6.39994C24.4331 6.37836 24.4032 6.35717 24.373 6.33635C22.6797 5.1665 20.2587 5.1665 15.5 5.1665C10.7415 5.1665 8.32049 5.1665 6.62712 6.33624C6.59693 6.3571 6.56696 6.37833 6.53722 6.39994C5.98894 6.79828 5.50678 7.28045 5.10843 7.82872ZM16.4688 12.9165C16.4688 12.3815 16.035 11.9478 15.5 11.9478C14.965 11.9478 14.5312 12.3815 14.5312 12.9165V15.8228H11.625C11.09 15.8228 10.6562 16.2565 10.6562 16.7915C10.6562 17.3265 11.09 17.7603 11.625 17.7603H14.5312V20.6665C14.5312 21.2015 14.965 21.6353 15.5 21.6353C16.035 21.6353 16.4688 21.2015 16.4688 20.6665V17.7603H19.375C19.91 17.7603 20.3438 17.3265 20.3438 16.7915C20.3438 16.2565 19.91 15.8228 19.375 15.8228H16.4688V12.9165Z" fill="white"/>
<path d="M15.4999 1.2915C17.9041 1.2915 19.1062 1.2915 20.079 1.6076C21.7815 2.16077 23.1656 3.39072 23.9209 4.98714C23.1198 4.64306 22.2192 4.45618 21.1858 4.34914C19.7241 4.19774 17.8879 4.19774 15.5553 4.19775H15.4446C13.1121 4.19774 11.2759 4.19774 9.81427 4.34912C8.78076 4.45617 7.8801 4.64305 7.07894 4.98714C7.8343 3.39073 9.21839 2.16077 10.9209 1.6076C11.8937 1.2915 13.0958 1.2915 15.4999 1.2915Z" fill="white"/>
</svg>
