<svg width="17" height="16" viewBox="0 0 17 16" fill="none" xmlns="http://www.w3.org/2000/svg">
<path d="M3.72833 2.31144C5.80692 0.801255 6.84622 0.0461618 8.03314 0.00261969C8.12836 -0.000873231 8.22367 -0.000873231 8.31888 0.00261969C9.50581 0.0461618 10.5451 0.801255 12.6237 2.31144C14.7023 3.82163 15.7416 4.57672 16.1498 5.6921C16.1825 5.78157 16.212 5.87222 16.2381 5.96385C16.5634 7.10614 16.1665 8.3279 15.3725 10.7714L14.0311 14.8999C13.818 15.5559 13.2067 16 12.5169 16C11.6376 16 10.9248 15.2872 10.9248 14.4079V12.2653C10.9248 11.4403 10.256 10.7714 9.43095 10.7714H6.92107C6.09602 10.7714 5.42719 11.4403 5.42719 12.2653V14.4079C5.42719 15.2872 4.71439 16 3.8351 16C3.14536 16 2.53407 15.5559 2.32092 14.8999L0.979509 10.7714C0.185557 8.3279 -0.211419 7.10614 0.11395 5.96385C0.140051 5.87222 0.169504 5.78157 0.202249 5.6921C0.61044 4.57672 1.64974 3.82163 3.72833 2.31144Z" fill="white"/>
</svg>
