<svg width="25" height="15" viewBox="0 0 25 15" fill="none" xmlns="http://www.w3.org/2000/svg">
<path d="M6.92313 7.35822C6.92313 8.10195 6.36108 8.70485 5.66775 8.70485C4.97442 8.70485 4.41237 8.10195 4.41237 7.35822C4.41237 6.6145 4.97442 6.01159 5.66775 6.01159C6.36108 6.01159 6.92313 6.6145 6.92313 7.35822Z" stroke="black"/>
<path d="M6.92313 0.625C3.57545 0.625055 1.0647 2.42057 1.0647 6.90929C1.0647 11.398 2.73853 13.6424 6.92313 13.6425C11.1077 13.6425 11.3676 12.0154 12.3631 9.15368H23.6615V6.90929C23.6615 6.90929 23.243 5.11378 21.9877 5.11378H12.3631C11.5061 1.65567 10.2708 0.624945 6.92313 0.625Z" stroke="black"/>
</svg>
