<svg width="26" height="27" viewBox="0 0 26 27" fill="none" xmlns="http://www.w3.org/2000/svg">
<path fill-rule="evenodd" clip-rule="evenodd" d="M24.8188 4.50381C25.5 5.97446 25.5 7.89964 25.5 11.75V13.3783C25.5 15.7009 25.5 16.8622 25.2475 17.8094C24.6486 20.0563 23.0512 21.8134 21.0086 22.4722C20.1474 22.75 19.0917 22.75 16.9803 22.75H16.2943L16.2129 22.7501C14.9376 22.7591 13.6953 23.197 12.6528 24.0051L12.5865 24.057L9.3231 26.6211C8.20437 27.5001 6.73428 26.2307 7.24488 24.8266C7.60656 23.832 6.94064 22.75 5.96677 22.75H5.21457C2.61079 22.75 0.5 20.4281 0.5 17.564V11.75C0.5 7.89964 0.5 5.97446 1.18121 4.50381C1.78042 3.2102 2.73655 2.15846 3.91256 1.49933C5.24951 0.75 6.99967 0.75 10.5 0.75H15.5C19.0003 0.75 20.7505 0.75 22.0874 1.49933C23.2635 2.15846 24.2196 3.2102 24.8188 4.50381ZM9.61783 11.4288C10.4092 10.5583 11.7567 10.9082 12.1106 12.0761C12.9053 14.6985 15.931 15.4843 17.708 13.5296L18.6629 12.4792C19.029 12.0765 19.029 11.4235 18.6629 11.0208C18.2968 10.6181 17.7032 10.6181 17.3371 11.0208L16.3822 12.0712C15.5908 12.9417 14.2433 12.5918 13.8894 11.4239C13.0947 8.80144 10.069 8.01573 8.292 9.97039L7.33709 11.0208C6.97097 11.4235 6.97097 12.0765 7.33709 12.4792C7.7032 12.8819 8.2968 12.8819 8.66291 12.4792L9.61783 11.4288Z" fill="#474161"/>
</svg>
