<svg width="24" height="18" viewBox="0 0 24 18" fill="none" xmlns="http://www.w3.org/2000/svg">
<path d="M8.75268 7.86812C7.88759 7.00781 7.35205 5.81645 7.35205 4.5C7.35205 3.18355 7.88759 1.99219 8.75268 1.13188C8.25462 0.887327 7.69437 0.75 7.10205 0.75C5.03098 0.75 3.35205 2.42893 3.35205 4.5C3.35205 6.57107 5.03098 8.25 7.10205 8.25C7.69437 8.25 8.25462 8.11267 8.75268 7.86812Z" fill="white"/>
<path d="M8.35205 4.5C8.35205 2.42893 10.031 0.75 12.1021 0.75C14.1731 0.75 15.8521 2.42893 15.8521 4.5C15.8521 6.57107 14.1731 8.25 12.1021 8.25C10.031 8.25 8.35205 6.57107 8.35205 4.5Z" fill="white"/>
<path d="M15.4514 1.13188C16.3165 1.99219 16.8521 3.18355 16.8521 4.5C16.8521 5.81645 16.3165 7.00781 15.4514 7.86812C15.9495 8.11267 16.5097 8.25 17.1021 8.25C19.1731 8.25 20.8521 6.57107 20.8521 4.5C20.8521 2.42893 19.1731 0.75 17.1021 0.75C16.5097 0.75 15.9495 0.887327 15.4514 1.13188Z" fill="white"/>
<path d="M5.35205 13.5C5.35205 11.4289 7.03098 9.75 9.10205 9.75H15.1021C17.1731 9.75 18.8521 11.4289 18.8521 13.5C18.8521 15.5711 17.1731 17.25 15.1021 17.25H9.10205C7.03098 17.25 5.35205 15.5711 5.35205 13.5Z" fill="white"/>
<path d="M0.352051 12.5C0.352051 10.4289 2.03098 8.75 4.10205 8.75H9.10205C6.4787 8.75 4.35205 10.8766 4.35205 13.5C4.35205 14.5249 4.67663 15.4739 5.2286 16.25H4.10205C2.03098 16.25 0.352051 14.5711 0.352051 12.5Z" fill="white"/>
<path d="M19.8521 13.5C19.8521 14.5249 19.5275 15.4739 18.9755 16.25H20.1021C22.1731 16.25 23.8521 14.5711 23.8521 12.5C23.8521 10.4289 22.1731 8.75 20.1021 8.75H15.1021C17.7254 8.75 19.8521 10.8766 19.8521 13.5Z" fill="white"/>
</svg>
