<svg width="25" height="24" viewBox="0 0 25 24" fill="none" xmlns="http://www.w3.org/2000/svg">
<path d="M15.5016 9C15.5016 10.7949 14.0465 12.25 12.2516 12.25V13.75C14.8749 13.75 17.0016 11.6234 17.0016 9H15.5016ZM12.2516 12.25C10.4567 12.25 9.00159 10.7949 9.00159 9H7.50159C7.50159 11.6234 9.62823 13.75 12.2516 13.75V12.25ZM9.00159 9C9.00159 7.20507 10.4567 5.75 12.2516 5.75V4.25C9.62823 4.25 7.50159 6.37665 7.50159 9H9.00159ZM12.2516 5.75C14.0465 5.75 15.5016 7.20507 15.5016 9H17.0016C17.0016 6.37665 14.8749 4.25 12.2516 4.25V5.75ZM9.25159 16.75H15.2516V15.25H9.25159V16.75ZM3.00159 12C3.00159 6.89137 7.14295 2.75 12.2516 2.75V1.25C6.31453 1.25 1.50159 6.06294 1.50159 12H3.00159ZM12.2516 2.75C17.3602 2.75 21.5016 6.89137 21.5016 12H23.0016C23.0016 6.06294 18.1886 1.25 12.2516 1.25V2.75ZM21.5016 12C21.5016 14.6233 20.4106 16.9905 18.6555 18.6748L19.6941 19.7571C21.7317 17.8016 23.0016 15.0485 23.0016 12H21.5016ZM18.6555 18.6748C16.9927 20.2705 14.7373 21.25 12.2516 21.25V22.75C15.1398 22.75 17.7633 21.61 19.6941 19.7571L18.6555 18.6748ZM15.2516 16.75C16.8276 16.75 18.1431 17.8726 18.4392 19.3621L19.9104 19.0697C19.4776 16.8918 17.5571 15.25 15.2516 15.25V16.75ZM12.2516 21.25C9.76583 21.25 7.51043 20.2705 5.84771 18.6748L4.80909 19.7571C6.73991 21.61 9.36341 22.75 12.2516 22.75V21.25ZM5.84771 18.6748C4.09262 16.9905 3.00159 14.6233 3.00159 12H1.50159C1.50159 15.0485 2.77148 17.8016 4.80909 19.7571L5.84771 18.6748ZM9.25159 15.25C6.94604 15.25 5.02562 16.8918 4.59279 19.0697L6.06401 19.3621C6.36005 17.8726 7.67555 16.75 9.25159 16.75V15.25Z" fill="white"/>
<path d="M15.2516 16H9.25156C7.31076 16 5.6928 17.3822 5.32837 19.2159C7.12514 20.9403 9.56459 22 12.2516 22C14.9385 22 17.378 20.9403 19.1747 19.2159C18.8103 17.3822 17.1923 16 15.2516 16Z" fill="white"/>
<path d="M19.1747 19.2159L19.6941 19.7571L19.9904 19.4726L19.9104 19.0697L19.1747 19.2159ZM5.32837 19.2159L4.59276 19.0697L4.51268 19.4726L4.80906 19.7571L5.32837 19.2159ZM9.25156 16.75H15.2516V15.25H9.25156V16.75ZM18.6554 18.6748C16.9927 20.2705 14.7373 21.25 12.2516 21.25V22.75C15.1397 22.75 17.7632 21.61 19.6941 19.7571L18.6554 18.6748ZM15.2516 16.75C16.8276 16.75 18.1431 17.8726 18.4391 19.3621L19.9104 19.0697C19.4775 16.8918 17.5571 15.25 15.2516 15.25V16.75ZM12.2516 21.25C9.7658 21.25 7.5104 20.2705 5.84768 18.6748L4.80906 19.7571C6.73988 21.61 9.36338 22.75 12.2516 22.75V21.25ZM9.25156 15.25C6.94601 15.25 5.02559 16.8918 4.59276 19.0697L6.06398 19.3621C6.36002 17.8726 7.67552 16.75 9.25156 16.75V15.25Z" fill="white"/>
<path d="M16.2516 9C16.2516 11.2091 14.4607 13 12.2516 13C10.0424 13 8.25159 11.2091 8.25159 9C8.25159 6.79086 10.0424 5 12.2516 5C14.4607 5 16.2516 6.79086 16.2516 9Z" fill="white"/>
<path d="M15.5016 9C15.5016 10.7949 14.0465 12.25 12.2516 12.25V13.75C14.8749 13.75 17.0016 11.6234 17.0016 9H15.5016ZM12.2516 12.25C10.4567 12.25 9.00159 10.7949 9.00159 9H7.50159C7.50159 11.6234 9.62823 13.75 12.2516 13.75V12.25ZM9.00159 9C9.00159 7.20507 10.4567 5.75 12.2516 5.75V4.25C9.62823 4.25 7.50159 6.37665 7.50159 9H9.00159ZM12.2516 5.75C14.0465 5.75 15.5016 7.20507 15.5016 9H17.0016C17.0016 6.37665 14.8749 4.25 12.2516 4.25V5.75Z" fill="white"/>
</svg>
