<svg width="20" height="16" viewBox="0 0 20 16" fill="none" xmlns="http://www.w3.org/2000/svg">
<path d="M1.27141 0C0.76366 0 0.352051 0.397969 0.352051 0.888889C0.352051 1.37981 0.76366 1.77778 1.27141 1.77778H18.4327C18.9404 1.77778 19.3521 1.37981 19.3521 0.888889C19.3521 0.397969 18.9404 0 18.4327 0H1.27141Z" fill="white"/>
<path d="M1.27141 7.11111C0.76366 7.11111 0.352051 7.50908 0.352051 8C0.352051 8.49092 0.76366 8.88889 1.27141 8.88889H18.4327C18.9404 8.88889 19.3521 8.49092 19.3521 8C19.3521 7.50908 18.9404 7.11111 18.4327 7.11111H1.27141Z" fill="white"/>
<path d="M1.27141 14.2222C0.76366 14.2222 0.352051 14.6202 0.352051 15.1111C0.352051 15.602 0.76366 16 1.27141 16H18.4327C18.9404 16 19.3521 15.602 19.3521 15.1111C19.3521 14.6202 18.9404 14.2222 18.4327 14.2222H1.27141Z" fill="white"/>
</svg>
