<svg xmlns="http://www.w3.org/2000/svg" width="32" height="32" id="share"><path style="text-indent:0;text-align:start;line-height:normal;text-transform:none;block-progression:tb;marker:none;-inkscape-font-specification:Sans" d="M16 0C7.17 0 0 7.17 0 16s7.17 16 16 16 16-7.17 16-16S24.83 0 16 0zm0 .969C24.307.969 31.031 7.693 31.031 16S24.307 31.031 16 31.031.969 24.307.969 16 7.693.969 16 .969zM19.75 10c-1.099 0-2 .901-2 2 0 .179.018.366.063.531l-3.188 1.844a2.5 2.5 0 0 0-1.875-.875 2.508 2.508 0 0 0-2.5 2.5c0 1.375 1.125 2.5 2.5 2.5.748 0 1.416-.35 1.875-.875l3.188 1.844a2.05 2.05 0 0 0-.063.531c0 1.099.901 2 2 2s2-.901 2-2-.901-2-2-2c-.56 0-1.073.249-1.438.625l-3.187-1.844c.08-.242.125-.513.125-.781s-.046-.507-.125-.75l3.188-1.875c.364.377.876.625 1.437.625 1.099 0 2-.901 2-2s-.901-2-2-2zm0 1c.558 0 1 .442 1 1s-.442 1-1 1-1-.442-1-1 .442-1 1-1zm-7 3.5c.834 0 1.5.666 1.5 1.5s-.666 1.5-1.5 1.5-1.5-.666-1.5-1.5.666-1.5 1.5-1.5zm7 4.5c.558 0 1 .442 1 1s-.442 1-1 1-1-.442-1-1 .442-1 1-1z" color="#000" font-family="Sans" font-weight="400" overflow="visible"></path></svg>