<svg width="29" height="29" viewBox="0 0 29 29" fill="none" xmlns="http://www.w3.org/2000/svg">
<path fill-rule="evenodd" clip-rule="evenodd" d="M14.5 29C22.5081 29 29 22.5081 29 14.5C29 6.49187 22.5081 0 14.5 0C6.49187 0 0 6.49187 0 14.5C0 22.5081 6.49187 29 14.5 29ZM10.0052 7.61924C10.6119 7.27715 11.5918 6.95366 12.4379 7.72067C14.4465 9.54144 11.0019 13.05 9.42501 13.05C7.84808 13.05 4.40347 9.54144 6.41209 7.72068C7.25823 6.95367 8.23804 7.27715 8.84474 7.61925C9.18755 7.81254 9.66243 7.81254 10.0052 7.61924ZM22.5879 7.72067C21.7418 6.95366 20.7619 7.27715 20.1552 7.61924C19.8124 7.81254 19.3376 7.81254 18.9947 7.61925C18.388 7.27715 17.4082 6.95367 16.5621 7.72068C14.5535 9.54144 17.9981 13.05 19.575 13.05C21.1519 13.05 24.5965 9.54144 22.5879 7.72067ZM14.5 24.65C12.0332 24.65 9.9064 22.6724 8.53277 20.8569C7.87678 19.9898 8.54795 18.85 9.63519 18.85H19.3648C20.4521 18.85 21.1232 19.9898 20.4672 20.8569C19.0936 22.6724 16.9668 24.65 14.5 24.65Z" fill="white"/>
</svg>
