<svg width="24" height="26" viewBox="0 0 24 26" fill="none" xmlns="http://www.w3.org/2000/svg">
<path d="M4.6675 4.83126C4.6675 4.83126 5.92288 5.28013 6.34134 6.62677C6.7598 7.9734 7.17826 13.8088 6.34134 14.7066C5.50442 15.6043 5.08596 15.6043 4.24904 16.0532C3.41212 16.5021 2.15674 16.5021 2.15674 16.5021M19.732 4.48934C19.732 4.48934 17.6397 4.38238 15.9659 5.28013C14.2921 6.17789 13.4551 8.87116 13.0367 9.76891C12.6182 10.6667 12.6182 12.9111 13.4551 13.8088C14.2921 14.7066 16.8028 12.9111 17.6397 14.2577C18.4767 15.6043 17.2213 19.1953 17.6397 20.0931C18.0582 20.9909 20.569 20.8779 20.1505 20.8779M23.0797 12.9111C23.0797 19.3567 18.2086 24.5819 12.1998 24.5819C6.19094 24.5819 1.31982 19.3567 1.31982 12.9111C1.31982 6.46544 6.19094 1.24023 12.1998 1.24023C18.2086 1.24023 23.0797 6.46544 23.0797 12.9111Z" stroke="black"/>
</svg>
